<svg width="223" height="90" viewBox="0 0 223 90" fill="none" xmlns="http://www.w3.org/2000/svg">
<path d="M6.5 8.2H31V10.05H8.35V24.15H28.05V26H8.35V41.15H31V43H6.5V8.2ZM55.1617 8.2C57.6951 8.2 60.0284 8.83333 62.1617 10.1C64.3284 11.3667 66.0451 13.0833 67.3117 15.25C68.5784 17.3833 69.2117 19.7167 69.2117 22.25V28.95C69.2117 31.4833 68.5784 33.8333 67.3117 36C66.0451 38.1333 64.3284 39.8333 62.1617 41.1C60.0284 42.3667 57.6951 43 55.1617 43H42.3117V8.2H55.1617ZM67.3617 22.25C67.3617 20.05 66.8117 18.0167 65.7117 16.15C64.6117 14.2833 63.1117 12.8 61.2117 11.7C59.3451 10.6 57.3117 10.05 55.1117 10.05H44.1617V41.15H55.1117C57.3117 41.15 59.3451 40.6 61.2117 39.5C63.1117 38.4 64.6117 36.9167 65.7117 35.05C66.8117 33.1833 67.3617 31.15 67.3617 28.95V22.25ZM104.773 35.85C103.873 38.15 102.24 40.05 99.8734 41.55C97.5068 43.0167 94.9734 43.75 92.2734 43.75C89.6734 43.75 87.2734 43.1 85.0734 41.8C82.8734 40.5 81.1234 38.7167 79.8234 36.45C78.5568 34.15 77.9234 31.6333 77.9234 28.9V21.9C77.9234 19.2333 78.5568 16.8 79.8234 14.6C81.1234 12.4 82.8568 10.6667 85.0234 9.4C87.2234 8.1 89.6401 7.45 92.2734 7.45C94.4401 7.45 96.4234 7.81667 98.2234 8.55C100.023 9.25 101.557 10.2833 102.823 11.65C103.857 12.7833 104.69 14.05 105.323 15.45C105.99 16.85 106.323 18.2667 106.323 19.7H104.523C104.49 18.4667 104.173 17.25 103.573 16.05C103.007 14.85 102.273 13.7667 101.373 12.8C99.1401 10.4667 96.1068 9.3 92.2734 9.3C89.9734 9.3 87.8568 9.86667 85.9234 11C84.0234 12.1 82.5234 13.6167 81.4234 15.55C80.3234 17.45 79.7734 19.5667 79.7734 21.9V28.9C79.7734 31.3333 80.3234 33.55 81.4234 35.55C82.5568 37.5167 84.0734 39.0667 85.9734 40.2C87.9068 41.3333 90.0068 41.9 92.2734 41.9C94.5734 41.9 96.6734 41.35 98.5734 40.25C100.507 39.1167 102.023 37.6 103.123 35.7C104.223 33.7667 104.773 31.6667 104.773 29.4V27.65H92.2734V25.8H106.623V43H104.773V35.85ZM117.535 8.2H142.035V10.05H119.385V24.15H139.085V26H119.385V41.15H142.035V43H117.535V8.2ZM4.45 53.15H6.45L18.6 74.65L30.7 53.15H32.55V87.95H4.45V53.15ZM6.3 86.15H30.7V56.9L19.45 76.7H17.7L6.3 56.6V86.15ZM66.8117 53.2V55.05H56.4117V86.15H66.8117V88H44.2617V86.15H54.6117V55.05H44.2617V53.2H66.8117ZM78.9234 88V53.2H80.8734L105.173 76.8V53.2H107.023V88H105.173V79.4L80.7734 55.6V88H78.9234ZM140.835 53.2V55.05H130.435V86.15H140.835V88H118.285V86.15H128.635V55.05H118.285V53.2H140.835ZM152.947 88V53.2H154.897L179.197 76.8V53.2H181.047V88H179.197V79.4L154.797 55.6V88H152.947ZM215.809 80.85C214.909 83.15 213.275 85.05 210.909 86.55C208.542 88.0167 206.009 88.75 203.309 88.75C200.709 88.75 198.309 88.1 196.109 86.8C193.909 85.5 192.159 83.7167 190.859 81.45C189.592 79.15 188.959 76.6333 188.959 73.9V66.9C188.959 64.2333 189.592 61.8 190.859 59.6C192.159 57.4 193.892 55.6667 196.059 54.4C198.259 53.1 200.675 52.45 203.309 52.45C205.475 52.45 207.459 52.8167 209.259 53.55C211.059 54.25 212.592 55.2833 213.859 56.65C214.892 57.7833 215.725 59.05 216.359 60.45C217.025 61.85 217.359 63.2667 217.359 64.7H215.559C215.525 63.4667 215.209 62.25 214.609 61.05C214.042 59.85 213.309 58.7667 212.409 57.8C210.175 55.4667 207.142 54.3 203.309 54.3C201.009 54.3 198.892 54.8667 196.959 56C195.059 57.1 193.559 58.6167 192.459 60.55C191.359 62.45 190.809 64.5667 190.809 66.9V73.9C190.809 76.3333 191.359 78.55 192.459 80.55C193.592 82.5167 195.109 84.0667 197.009 85.2C198.942 86.3333 201.042 86.9 203.309 86.9C205.609 86.9 207.709 86.35 209.609 85.25C211.542 84.1167 213.059 82.6 214.159 80.7C215.259 78.7667 215.809 76.6667 215.809 74.4V72.65H203.309V70.8H217.659V88H215.809V80.85Z" fill="white"/>
</svg>
